<svg width="32" height="30" viewBox="0 0 32 30" fill="none" xmlns="http://www.w3.org/2000/svg">
<g filter="url(#filter0_d_12_384)">
<path fill-rule="evenodd" clip-rule="evenodd" d="M13.4961 7.63176C13.1866 7.4549 12.8064 7.45617 12.4981 7.63509C12.1898 7.81401 12 8.14353 12 8.5V16.5C12 16.8565 12.1898 17.186 12.4981 17.3649C12.8064 17.5438 13.1866 17.5451 13.4961 17.3682L20.4961 13.3682C20.8077 13.1902 21 12.8589 21 12.5C21 12.1411 20.8077 11.8098 20.4961 11.6318L13.4961 7.63176ZM17.9844 12.5L14 14.7768V10.2232L17.9844 12.5Z" fill="#0F0F0F"/>
<path fill-rule="evenodd" clip-rule="evenodd" d="M4 12.5C4 8.75027 4 6.8754 4.95491 5.56107C5.26331 5.1366 5.6366 4.76331 6.06107 4.45491C7.3754 3.5 9.25027 3.5 13 3.5H19C22.7497 3.5 24.6246 3.5 25.9389 4.45491C26.3634 4.76331 26.7367 5.1366 27.0451 5.56107C28 6.8754 28 8.75027 28 12.5C28 16.2497 28 18.1246 27.0451 19.4389C26.7367 19.8634 26.3634 20.2367 25.9389 20.5451C24.6246 21.5 22.7497 21.5 19 21.5H13C9.25027 21.5 7.3754 21.5 6.06107 20.5451C5.6366 20.2367 5.26331 19.8634 4.95491 19.4389C4 18.1246 4 16.2497 4 12.5ZM13 5.5H19C20.9194 5.5 22.1983 5.50275 23.1673 5.60773C24.0989 5.70866 24.504 5.88448 24.7634 6.07295C25.018 6.25799 25.242 6.48196 25.4271 6.73664C25.6155 6.99605 25.7913 7.40113 25.8923 8.33269C25.9973 9.30167 26 10.5806 26 12.5C26 14.4194 25.9973 15.6983 25.8923 16.6673C25.7913 17.5989 25.6155 18.004 25.4271 18.2634C25.242 18.518 25.018 18.742 24.7634 18.9271C24.504 19.1155 24.0989 19.2913 23.1673 19.3923C22.1983 19.4973 20.9194 19.5 19 19.5H13C11.0806 19.5 9.80167 19.4973 8.83269 19.3923C7.90113 19.2913 7.49605 19.1155 7.23664 18.9271C6.98196 18.742 6.75799 18.518 6.57295 18.2634C6.38448 18.004 6.20866 17.5989 6.10773 16.6673C6.00275 15.6983 6 14.4194 6 12.5C6 10.5806 6.00275 9.30167 6.10773 8.33269C6.20866 7.40113 6.38448 6.99605 6.57295 6.73664C6.75799 6.48196 6.98196 6.25799 7.23664 6.07295C7.49605 5.88448 7.90113 5.70866 8.83269 5.60773C9.80167 5.50275 11.0806 5.5 13 5.5Z" fill="#0F0F0F"/>
</g>
<defs>
<filter id="filter0_d_12_384" x="0" y="0" width="32" height="33" filterUnits="userSpaceOnUse" color-interpolation-filters="sRGB">
<feFlood flood-opacity="0" result="BackgroundImageFix"/>
<feColorMatrix in="SourceAlpha" type="matrix" values="0 0 0 0 0 0 0 0 0 0 0 0 0 0 0 0 0 0 127 0" result="hardAlpha"/>
<feOffset dy="4"/>
<feGaussianBlur stdDeviation="2"/>
<feComposite in2="hardAlpha" operator="out"/>
<feColorMatrix type="matrix" values="0 0 0 0 0 0 0 0 0 0 0 0 0 0 0 0 0 0 0.25 0"/>
<feBlend mode="normal" in2="BackgroundImageFix" result="effect1_dropShadow_12_384"/>
<feBlend mode="normal" in="SourceGraphic" in2="effect1_dropShadow_12_384" result="shape"/>
</filter>
</defs>
</svg>
