<svg width="19.000000" height="22.000000" viewBox="0 0 19 22" fill="none" xmlns="http://www.w3.org/2000/svg" xmlns:xlink="http://www.w3.org/1999/xlink">
	<desc>
			Created with Pixso.
	</desc>
	<defs/>
	<path id="Vector" d="M13.52 5C13.5 4.91 13.49 4.83 13.47 4.75C13.2 3.7 12.79 2.55 12.11 1.65C11.41 0.71 10.39 0 9 0C7.6 0 6.58 0.71 5.88 1.65C5.2 2.55 4.79 3.7 4.52 4.75C4.5 4.83 4.49 4.91 4.47 5L2.87 5C1.29 5 -0.02 6.22 -0.13 7.8L-0.86 18.8C-0.98 20.53 0.4 22 2.13 22L15.86 22C17.59 22 18.97 20.53 18.85 18.8L18.12 7.8C18.01 6.22 16.7 5 15.12 5L13.52 5ZM4.47 13.5C5.04 13.5 5.99 9.56 6 8.99C6 8.97 6 8.95 6 8.92C6 8.87 6 8.79 6 8.69C6.01 8.48 6.02 8.18 6.05 7.83C6.08 7.57 6.1 7.29 6.14 7L11.85 7C11.89 7.29 11.91 7.57 11.94 7.83C11.97 8.18 11.98 8.48 11.99 8.69C11.99 8.79 11.99 8.87 11.99 8.92C11.99 8.95 11.99 8.97 12 9C12 9 12.47 13.5 13.47 13.5C14.47 13.5 14 8.99 14 8.99C13.99 8.96 13.99 8.92 13.99 8.89C13.99 8.82 13.99 8.73 13.99 8.62C13.98 8.38 13.96 8.06 13.93 7.66C13.91 7.46 13.89 7.23 13.86 7L15.12 7C15.65 7 16.09 7.4 16.12 7.93L16.86 18.93C16.89 19.51 16.44 20 15.86 20L2.13 20C1.55 20 1.1 19.51 1.13 18.93L1.87 7.93C1.9 7.4 2.34 7 2.87 7L4.13 7C4.1 7.23 4.08 7.46 4.06 7.66C4.03 8.06 4.01 8.38 4 8.62C4 8.73 4 8.82 4 8.89C4 8.92 4 8.96 4 8.99C3.99 9.56 3.89 13.5 4.47 13.5ZM6.53 5L11.46 5C11.23 4.15 10.92 3.39 10.51 2.84C10.08 2.28 9.6 2 9 2C8.39 2 7.91 2.28 7.48 2.84C7.07 3.39 6.76 4.15 6.53 5Z" fill="#0F0F0F" fill-opacity="1.000000" fill-rule="evenodd"/>
</svg>
