<svg width="23.000000" height="22.000000" viewBox="0 0 23 22" fill="none" xmlns="http://www.w3.org/2000/svg" xmlns:xlink="http://www.w3.org/1999/xlink">
	<desc>
			Created with Pixso.
	</desc>
	<defs/>
	<path id="Vector" d="M2.48 5C1.76 6.24 1.52 7.97 1.97 9.75C2.13 10.39 2.59 11.22 3.33 12.17C4.06 13.1 4.98 14.07 5.96 15.01C7.9 16.86 10 18.49 11 19.25C11.99 18.49 14.09 16.86 16.03 15.01C17.01 14.07 17.93 13.1 18.66 12.17C19.4 11.22 19.86 10.39 20.02 9.75C20.47 7.97 20.23 6.24 19.51 5C18.8 3.78 17.62 3 16 3C14.59 3 13.59 4.04 12.89 5.44C12.55 6.12 12.32 6.8 12.18 7.33C12.11 7.58 12.06 7.8 12.02 7.95C11.91 8.47 11.31 8.5 11 8.5C10.68 8.5 10.08 8.46 9.97 7.95C9.93 7.8 9.88 7.58 9.81 7.33C9.67 6.8 9.44 6.12 9.1 5.44C8.4 4.04 7.4 3 6 3C4.37 3 3.19 3.78 2.48 5ZM11 4.77C11.03 4.69 11.06 4.62 11.1 4.55C11.9 2.95 14.4 0 17 0C19.37 0 20.19 2.21 21.23 3.99C22.26 5.75 22.52 8.02 21.97 10.24C21.7 11.29 21.03 12.38 20.24 13.4C19.43 14.44 18.43 15.48 17.41 16.46C15.37 18.4 13.19 20.1 12.18 20.86C11.48 21.39 10.51 21.39 9.81 20.86C8.8 20.1 6.62 18.4 4.58 16.46C3.56 15.48 2.56 14.44 1.75 13.4C0.96 12.38 0.29 11.29 0.02 10.24C-0.53 8.02 -0.27 5.75 0.76 3.99C1.8 2.21 3.12 0 5.5 0C8.09 0 10.09 2.95 10.89 4.55C10.93 4.62 10.96 4.69 11 4.77Z" fill="#0F0F0F" fill-opacity="1.000000" fill-rule="evenodd"/>
</svg>
